<svg version="1.1" xmlns="http://www.w3.org/2000/svg" xmlns:xlink="http://www.w3.org/1999/xlink" width="33.62989" height="33.6299" viewBox="0,0,33.62989,33.6299"><g transform="translate(-303.18506,-163.18505)"><g fill="#9966ff" stroke="#000000" stroke-width="2" stroke-miterlimit="10"><path d="M304.18506,180c0,-8.73435 7.0806,-15.81494 15.81495,-15.81494c8.73435,0 15.81494,7.08059 15.81494,15.81494c0,8.73435 -7.08059,15.81495 -15.81494,15.81495c-8.73435,0 -15.81495,-7.0806 -15.81495,-15.81495zM319.92386,192.27745c10.87422,0.05382 11.99659,-10.17311 11.99659,-10.17311h-23.32137c0,0 0.34614,4.19587 3.39266,7.19831c1.68509,1.66072 4.19633,2.95631 7.93212,2.9748zM325.76857,177.21294c1.18129,0 2.1389,-0.95762 2.1389,-2.1389c0,-1.18129 -0.95762,-2.13891 -2.1389,-2.13891c-1.18129,0 -2.13891,0.95763 -2.13891,2.13891c0,1.18129 0.95763,2.1389 2.13891,2.1389zM314.23144,177.21294c1.18129,0 2.13891,-0.95762 2.13891,-2.1389c0,-1.18129 -0.95763,-2.13891 -2.13891,-2.13891c-1.18129,0 -2.1389,0.95763 -2.1389,2.13891c0,1.18129 0.95762,2.1389 2.1389,2.1389z"/></g></g></svg>